# xmcd
#
# Track frame offsets:
# 150
# 13109
# 26431
# 37977
# 51551
# 62971
# 76545
# 89429
# 102092
# 115073
# 128459
# 140127
# 151432
# 164307
# 175552
# 186370
# 198128
# 209271
# 220260
# 231984
# 242261
# 252780
# 263167
# 273410
# 285798
#
# Disc length: 3961 seconds
#
# Revision: 0
# Processed by: cddbd v1.4PL0 Copyright (c) Steve Scherf et al.
# Submitted via: Axialis_AX_CDPlayer 2.6
#
DISCID=4f0f7719
DTITLE=Robert Johnson - Hellhound On My Trail
DYEAR=1900
DGENRE=
TTITLE0=Rambling On My Mind
TTITLE1=I Believe I'll Dust My Broom
TTITLE2=Phonograph Blues
TTITLE3=Terraplane Blues
TTITLE4=Kindhearted Woman Blues
TTITLE5=Sweet Home Chicago
TTITLE6=When You Got A Good Friend
TTITLE7=Come On In My Kitchen
TTITLE8=32-20 Blues
TTITLE9=They're Red Hot
TTITLE10=If I Had Possession Over Judgement Day
TTITLE11=Crossroad Blues
TTITLE12=Preaching Blues
TTITLE13=Walking Blues
TTITLE14=From Four Till Late
TTITLE15=I'm A Steady Rollin' Man
TTITLE16=Stones In My Passway
TTITLE17=Drunken Hearted Man
TTITLE18=Hellhound On My Tail
TTITLE19=Honeymoon Blues
TTITLE20=Love In Vain
TTITLE21=Malted Milk
TTITLE22=Stop Breakin' Down Blues
TTITLE23=Travelling Riverside Blues
TTITLE24=Me anf the Devil Blues
EXTD=
EXTT0=
EXTT1=
EXTT2=
EXTT3=
EXTT4=
EXTT5=
EXTT6=
EXTT7=
EXTT8=
EXTT9=
EXTT10=
EXTT11=
EXTT12=
EXTT13=
EXTT14=
EXTT15=
EXTT16=
EXTT17=
EXTT18=
EXTT19=
EXTT20=
EXTT21=
EXTT22=
EXTT23=
EXTT24=
PLAYORDER=
